<mxfile host="65bd71144e">
    <diagram id="gEPOyXu0hmPjbCcYNzJj" name="ページ1">
        <mxGraphModel dx="1083" dy="506" grid="1" gridSize="10" guides="1" tooltips="1" connect="1" arrows="1" fold="1" page="1" pageScale="1" pageWidth="850" pageHeight="1100" math="0" shadow="0">
            <root>
                <mxCell id="0"/>
                <mxCell id="1" parent="0"/>
                <mxCell id="21" value="&lt;font color=&quot;#ffffff&quot;&gt;アプリケーションコア層&lt;/font&gt;" style="rounded=0;whiteSpace=wrap;html=1;fontFamily=Noto Sans JP;fontSize=18;strokeWidth=1;fontSource=https%3A%2F%2Ffonts.googleapis.com%2Fcss%3Ffamily%3DNoto%2BSans%2BJP;fillColor=none;strokeColor=#FFFFFF;spacingTop=8;verticalAlign=top;" parent="1" vertex="1">
                    <mxGeometry x="50" y="260" width="520" height="210" as="geometry"/>
                </mxCell>
                <mxCell id="22" value="&lt;div&gt;&lt;font color=&quot;#000000&quot;&gt;アプリケーションサービス&lt;/font&gt;&lt;/div&gt;" style="rounded=0;whiteSpace=wrap;html=1;fontFamily=Noto Sans JP;fontSize=18;fillColor=#ffff88;strokeColor=#666666;strokeWidth=1;spacingLeft=0;fontSource=https%3A%2F%2Ffonts.googleapis.com%2Fcss%3Ffamily%3DNoto%2BSans%2BJP;align=center;verticalAlign=top;spacingTop=8;" parent="1" vertex="1">
                    <mxGeometry x="90" y="310" width="230" height="140" as="geometry"/>
                </mxCell>
                <mxCell id="23" value="&lt;font&gt;&lt;font color=&quot;#ffffff&quot;&gt;インフラストラクチャ層&lt;/font&gt;&lt;br&gt;&lt;/font&gt;" style="rounded=0;whiteSpace=wrap;html=1;fontFamily=Noto Sans JP;fontSize=18;strokeWidth=1;fontSource=https%3A%2F%2Ffonts.googleapis.com%2Fcss%3Ffamily%3DNoto%2BSans%2BJP;fillColor=none;strokeColor=#FFFFFF;spacingTop=8;verticalAlign=top;fontColor=#000000;" parent="1" vertex="1">
                    <mxGeometry x="330" y="50" width="240" height="180" as="geometry"/>
                </mxCell>
                <mxCell id="24" value="&lt;font&gt;プレゼンテーション層&lt;br&gt;&lt;/font&gt;" style="rounded=0;whiteSpace=wrap;html=1;fontFamily=Noto Sans JP;fontSize=18;strokeWidth=1;fontSource=https%3A%2F%2Ffonts.googleapis.com%2Fcss%3Ffamily%3DNoto%2BSans%2BJP;fillColor=none;strokeColor=#FFFFFF;spacingTop=8;verticalAlign=top;fontColor=#f5f4f4;" parent="1" vertex="1">
                    <mxGeometry x="50" y="50" width="240" height="180" as="geometry"/>
                </mxCell>
                <mxCell id="25" value="&lt;div&gt;&lt;font color=&quot;#000000&quot;&gt;ドメインサービス&lt;/font&gt;&lt;/div&gt;" style="rounded=0;whiteSpace=wrap;html=1;fontFamily=Noto Sans JP;fontSize=18;fillColor=#ffcc99;strokeColor=#666666;strokeWidth=1;spacingLeft=0;fontSource=https%3A%2F%2Ffonts.googleapis.com%2Fcss%3Ffamily%3DNoto%2BSans%2BJP;align=center;verticalAlign=top;spacingTop=4;" parent="1" vertex="1">
                    <mxGeometry x="110" y="360" width="190" height="90" as="geometry"/>
                </mxCell>
                <mxCell id="26" value="&lt;font color=&quot;#000000&quot;&gt;リポジトリ&lt;br&gt;&lt;br&gt;&lt;br&gt;&lt;br&gt;&lt;/font&gt;" style="rounded=0;whiteSpace=wrap;html=1;fontFamily=Noto Sans JP;fontSize=18;fillColor=#cce5ff;strokeColor=#666666;strokeWidth=1;spacingLeft=0;fontSource=https%3A%2F%2Ffonts.googleapis.com%2Fcss%3Ffamily%3DNoto%2BSans%2BJP;" parent="1" vertex="1">
                    <mxGeometry x="370" y="100" width="160" height="110" as="geometry"/>
                </mxCell>
                <mxCell id="27" value="&lt;font color=&quot;#000000&quot;&gt;リポジトリ&lt;br&gt;インターフェース&lt;br&gt;&lt;/font&gt;" style="rounded=0;whiteSpace=wrap;html=1;fontFamily=Noto Sans JP;fontSize=18;fillColor=#cce5ff;strokeColor=#36393d;strokeWidth=1;spacingLeft=0;fontSource=https%3A%2F%2Ffonts.googleapis.com%2Fcss%3Ffamily%3DNoto%2BSans%2BJP;verticalAlign=top;spacingTop=8;" parent="1" vertex="1">
                    <mxGeometry x="370" y="310" width="160" height="140" as="geometry"/>
                </mxCell>
                <mxCell id="28" value="&lt;font color=&quot;#000000&quot;&gt;コントローラー&lt;/font&gt;" style="rounded=0;whiteSpace=wrap;html=1;fontFamily=Noto Sans JP;fontSize=18;fillColor=#cce5ff;strokeColor=#666666;strokeWidth=1;spacingLeft=0;fontSource=https%3A%2F%2Ffonts.googleapis.com%2Fcss%3Ffamily%3DNoto%2BSans%2BJP;" parent="1" vertex="1">
                    <mxGeometry x="90" y="170" width="160" height="40" as="geometry"/>
                </mxCell>
                <mxCell id="29" value="&lt;font color=&quot;#000000&quot;&gt;DbContext&lt;/font&gt;" style="rounded=0;whiteSpace=wrap;html=1;fontFamily=Noto Sans JP;fontSize=18;fillColor=#cdeb8b;strokeColor=#666666;strokeWidth=1;spacingLeft=0;fontSource=https%3A%2F%2Ffonts.googleapis.com%2Fcss%3Ffamily%3DNoto%2BSans%2BJP;" parent="1" vertex="1">
                    <mxGeometry x="387.02" y="150" width="125.96" height="40" as="geometry"/>
                </mxCell>
                <mxCell id="30" style="edgeStyle=none;sketch=0;html=1;exitX=0.5;exitY=1;exitDx=0;exitDy=0;shadow=0;fontColor=#000000;endArrow=classic;endFill=1;strokeColor=#666666;strokeWidth=4;" parent="1" source="28" edge="1">
                    <mxGeometry relative="1" as="geometry">
                        <mxPoint x="665.5799999999999" y="585" as="sourcePoint"/>
                        <mxPoint x="170" y="310" as="targetPoint"/>
                    </mxGeometry>
                </mxCell>
                <mxCell id="31" style="edgeStyle=none;sketch=0;html=1;exitX=0.5;exitY=1;exitDx=0;exitDy=0;shadow=0;fontColor=#000000;endArrow=block;endFill=1;strokeColor=#666666;strokeWidth=4;dashed=1;" parent="1" source="26" target="27" edge="1">
                    <mxGeometry relative="1" as="geometry">
                        <mxPoint x="465" y="340" as="sourcePoint"/>
                        <mxPoint x="499.05726000000004" y="495.94000000000005" as="targetPoint"/>
                    </mxGeometry>
                </mxCell>
                <mxCell id="32" value="&lt;font color=&quot;#000000&quot;&gt;ドメインモデル&lt;/font&gt;" style="rounded=0;whiteSpace=wrap;html=1;fontFamily=Noto Sans JP;fontSize=18;fillColor=#cdeb8b;strokeColor=#36393d;strokeWidth=1;spacingLeft=0;fontSource=https%3A%2F%2Ffonts.googleapis.com%2Fcss%3Ffamily%3DNoto%2BSans%2BJP;" parent="1" vertex="1">
                    <mxGeometry x="240" y="404" width="190" height="40" as="geometry"/>
                </mxCell>
                <mxCell id="33" value="依存関係" style="text;html=1;strokeColor=none;fillColor=none;align=left;verticalAlign=middle;whiteSpace=wrap;rounded=0;fontFamily=Noto Sans JP;fontSource=https%3A%2F%2Ffonts.googleapis.com%2Fcss%3Ffamily%3DNoto%2BSans%2BJP;fontSize=18;fontColor=#FFFFFF;" parent="1" vertex="1">
                    <mxGeometry x="190" y="480" width="90" height="40" as="geometry"/>
                </mxCell>
                <mxCell id="34" style="edgeStyle=none;sketch=0;html=1;shadow=0;fontColor=#FFFFFF;endArrow=classic;endFill=1;strokeColor=#666666;strokeWidth=4;" parent="1" edge="1">
                    <mxGeometry relative="1" as="geometry">
                        <mxPoint x="130" y="500" as="sourcePoint"/>
                        <mxPoint x="180" y="499.7800887623514" as="targetPoint"/>
                    </mxGeometry>
                </mxCell>
                <mxCell id="35" value="実装関係" style="text;html=1;strokeColor=none;fillColor=none;align=left;verticalAlign=middle;whiteSpace=wrap;rounded=0;fontFamily=Noto Sans JP;fontSource=https%3A%2F%2Ffonts.googleapis.com%2Fcss%3Ffamily%3DNoto%2BSans%2BJP;fontSize=18;fontColor=#FFFFFF;" parent="1" vertex="1">
                    <mxGeometry x="378.41999999999996" y="480" width="90" height="40" as="geometry"/>
                </mxCell>
                <mxCell id="36" style="edgeStyle=none;sketch=0;html=1;shadow=0;fontColor=#000000;endArrow=block;endFill=1;strokeColor=#666666;strokeWidth=4;dashed=1;" parent="1" edge="1">
                    <mxGeometry relative="1" as="geometry">
                        <mxPoint x="320" y="501" as="sourcePoint"/>
                        <mxPoint x="370" y="501" as="targetPoint"/>
                    </mxGeometry>
                </mxCell>
                <mxCell id="37" style="edgeStyle=none;sketch=0;html=1;shadow=0;fontColor=#000000;endArrow=classic;endFill=1;strokeColor=#666666;strokeWidth=4;exitX=1;exitY=0.25;exitDx=0;exitDy=0;entryX=-0.001;entryY=0.516;entryDx=0;entryDy=0;entryPerimeter=0;" parent="1" source="25" target="27" edge="1">
                    <mxGeometry relative="1" as="geometry">
                        <mxPoint x="350" y="383" as="sourcePoint"/>
                        <mxPoint x="590" y="383" as="targetPoint"/>
                    </mxGeometry>
                </mxCell>
                <mxCell id="38" style="edgeStyle=none;sketch=0;html=1;exitX=1;exitY=0.25;exitDx=0;exitDy=0;shadow=0;fontColor=#000000;endArrow=classic;endFill=1;strokeColor=#666666;strokeWidth=4;entryX=0;entryY=0.25;entryDx=0;entryDy=0;" parent="1" source="22" target="27" edge="1">
                    <mxGeometry relative="1" as="geometry">
                        <mxPoint x="651.76" y="585" as="sourcePoint"/>
                        <mxPoint x="696.1799999999998" y="583.1401775247027" as="targetPoint"/>
                    </mxGeometry>
                </mxCell>
                <mxCell id="39" value="&lt;font color=&quot;#000000&quot;&gt;API モデル&lt;/font&gt;" style="rounded=0;whiteSpace=wrap;html=1;fontFamily=Noto Sans JP;fontSize=18;fillColor=#cce5ff;strokeColor=#666666;strokeWidth=1;spacingLeft=0;fontSource=https%3A%2F%2Ffonts.googleapis.com%2Fcss%3Ffamily%3DNoto%2BSans%2BJP;" parent="1" vertex="1">
                    <mxGeometry x="90" y="110" width="160" height="40" as="geometry"/>
                </mxCell>
            </root>
        </mxGraphModel>
    </diagram>
</mxfile>